<svg width="64" height="64" viewBox="0 0 64 64" fill="none" xmlns="http://www.w3.org/2000/svg">
<path d="M50.7399 22.705C45.3136 16.7119 42.0889 11.4361 40.339 8.0655C38.4438 4.41465 37.8228 2.15077 37.818 2.13276L37.2539 0L35.2391 0.898668C35.0037 1.00364 29.437 3.54225 26.3179 9.78039C24.7521 12.912 24.439 16.3987 24.4521 18.7721C24.4597 20.1533 23.4811 21.3526 22.1253 21.6237C21.1747 21.8136 20.1968 21.5181 19.5107 20.832L15.7578 17.0791L14.4668 18.8593C14.3328 19.0441 11.1778 23.3953 10.6034 24.2647C7.79852 28.5105 6.33598 33.4565 6.37389 38.5679C6.42468 45.3946 9.1093 51.7903 13.9332 56.5773C18.7568 61.3639 25.1731 64 32.0001 64C46.1307 63.9999 57.6268 52.5038 57.6268 38.3732C57.6269 33.2499 55.1167 27.5391 50.7399 22.705ZM32.0003 60.2467C26.1702 60.2467 20.6929 57.9975 16.5771 53.9131C12.4613 49.8287 10.1707 44.369 10.1273 38.54C10.0948 34.1764 11.3424 29.9554 13.7351 26.3336C14.0273 25.8915 15.1992 24.2565 16.2165 22.8457L16.8569 23.4861C18.4323 25.0615 20.6765 25.7412 22.8617 25.3042C25.9754 24.6814 28.2229 21.9257 28.2055 18.7516C28.1946 16.7872 28.4409 13.9275 29.6751 11.4589C31.1774 8.45434 33.4233 6.49073 34.9839 5.39877C36.3954 8.98894 39.9734 16.4061 47.9577 25.2244C49.7364 27.1889 53.8736 32.4027 53.8736 38.3734C53.8736 50.4343 44.0612 60.2467 32.0003 60.2467Z" fill="white"/>
<path d="M35.8037 31.841L24.0358 49.0742H28.1964L39.9643 31.841H35.8037Z" fill="white"/>
<path d="M38.3148 39.7191C35.7053 39.7191 33.7357 41.467 33.7357 44.5198C33.7357 47.5971 35.7051 49.3204 38.3148 49.3204C40.9245 49.3204 42.894 47.5971 42.894 44.5198C42.894 41.467 40.9244 39.7191 38.3148 39.7191ZM38.3148 46.6616C37.7732 46.6616 37.2316 46.1691 37.2316 44.5197C37.2316 42.8702 37.7732 42.3778 38.3148 42.3778C38.8564 42.3778 39.398 42.8702 39.398 44.5197C39.398 46.1691 38.8564 46.6616 38.3148 46.6616Z" fill="white"/>
<path d="M30.2645 36.3955C30.2645 33.3428 28.295 31.5949 25.6853 31.5949C23.0756 31.5949 21.1061 33.3428 21.1061 36.3955C21.1061 39.4729 23.0756 41.1963 25.6853 41.1963C28.295 41.1963 30.2645 39.4729 30.2645 36.3955ZM24.6021 36.3955C24.6021 34.7461 25.1437 34.2536 25.6853 34.2536C26.2269 34.2536 26.7685 34.7461 26.7685 36.3955C26.7685 38.045 26.2269 38.5374 25.6853 38.5374C25.1437 38.5374 24.6021 38.045 24.6021 36.3955Z" fill="white"/>
</svg>
