<svg width="65" height="65" viewBox="0 0 65 65" fill="none" xmlns="http://www.w3.org/2000/svg">
<g clip-path="url(#clip0)">
<path d="M62.9668 28.4357C61.8457 28.4357 60.9357 29.3456 60.9357 30.4668V53.4673L44.6867 59.9669V38.5913C44.6867 37.4701 43.7768 36.5602 42.6556 36.5602C41.5344 36.5602 40.6245 37.4701 40.6245 38.5913V59.9628L24.3755 53.4632V21.2821L33.7877 25.0478C34.8155 25.4621 36.0098 24.9584 36.4282 23.9144C36.8466 22.8745 36.3388 21.6924 35.2948 21.274L23.1365 16.4074C23.1365 16.4074 23.1365 16.4074 23.1325 16.4074L23.1 16.3952C22.6165 16.2002 22.0763 16.2002 21.5929 16.3952L21.5563 16.4074C21.5563 16.4074 21.5563 16.4074 21.5522 16.4074L1.27756 24.5197C0.509795 24.8284 0.00201416 25.5718 0.00201416 26.4046V62.9648C0.00201416 63.6391 0.339181 64.2688 0.895709 64.6466C1.23694 64.8781 1.63098 64.9959 2.03314 64.9959C2.28906 64.9959 2.54498 64.9472 2.78872 64.8497L22.3444 57.0299L41.8635 64.8375C41.8635 64.8375 41.8635 64.8375 41.8675 64.8375L41.9041 64.8538C42.3875 65.0487 42.9278 65.0487 43.4112 64.8538L43.4478 64.8375C43.4478 64.8375 43.4478 64.8375 43.4518 64.8375L63.7265 56.7293C64.4902 56.4165 64.998 55.6731 64.998 54.8403V30.4668C64.998 29.3456 64.088 28.4357 62.9668 28.4357ZM20.3133 53.4632L4.06426 59.9628V27.7776L20.3133 21.278V53.4632Z" fill="white"/>
<path d="M50.7801 8.12451C47.4207 8.12451 44.6868 10.8584 44.6868 14.2179C44.6868 17.5774 47.4207 20.3112 50.7801 20.3112C54.1396 20.3112 56.8735 17.5774 56.8735 14.2179C56.8735 10.8584 54.1396 8.12451 50.7801 8.12451ZM50.7801 16.249C49.659 16.249 48.749 15.3391 48.749 14.2179C48.749 13.0967 49.659 12.1868 50.7801 12.1868C51.9013 12.1868 52.8113 13.0967 52.8113 14.2179C52.8113 15.3391 51.9013 16.249 50.7801 16.249Z" fill="white"/>
<path d="M50.7801 0C42.94 0 36.5623 6.37773 36.5623 14.2179C36.5623 21.5137 47.969 34.4357 49.269 35.8859C49.6549 36.3124 50.2033 36.5602 50.7801 36.5602C51.357 36.5602 51.9054 36.3124 52.2913 35.8859C53.5912 34.4357 64.998 21.5137 64.998 14.2179C64.998 6.37773 58.6202 0 50.7801 0ZM50.7801 31.4296C46.3441 26.169 40.6245 18.0932 40.6245 14.2179C40.6245 8.62009 45.1823 4.06225 50.7801 4.06225C56.3779 4.06225 60.9357 8.62009 60.9357 14.2179C60.9357 18.0892 55.2161 26.169 50.7801 31.4296Z" fill="white"/>
</g>
<defs>
<clipPath id="clip0">
<rect width="65" height="65" fill="white"/>
</clipPath>
</defs>
</svg>
